# This file uses centimeters as units for non-parametric coordinates.

mtllib OutsideCorner_LP.mtl
g default
v -1.000000 0.000000 -4.000000
v -0.500000 0.000000 -3.500000
v 0.000000 0.000000 -3.000000
v -1.000000 1.000000 -4.000000
v -0.500000 1.000000 -3.499999
v 0.000000 0.499999 -3.000000
v 3.000000 1.000000 -4.000000
v 3.000000 1.000000 -3.500000
v 3.000000 0.500000 -3.000000
v 3.000000 0.000000 -4.000000
v 3.000000 0.000000 -3.500000
v 3.000000 0.000000 -3.000000
v -1.000000 0.000000 0.000000
v -0.500000 0.000000 0.000000
v 0.000000 0.000000 0.000000
v -1.000000 1.000000 0.000000
v -0.500000 1.000000 0.000000
v 0.000000 0.500000 0.000000
vt 0.208463 0.525280
vt 0.149470 0.587637
vt 0.385172 0.574025
vt 0.326450 0.526743
vt 0.090477 0.627625
vt 0.468336 0.627862
vt 0.777486 0.840107
vt 0.855100 0.839833
vt 0.469304 0.928419
vt 0.149902 0.928809
vt 0.208896 0.928737
vt 0.528298 0.928347
vt 0.699599 0.762768
vt 0.699325 0.685154
vt 0.326882 0.928593
vt 0.854552 0.684606
vt 0.776938 0.684880
vt 0.385875 0.928521
vt 0.090909 0.928881
vt 0.527865 0.626720
vt 0.711963 0.154217
vt 0.788792 0.154217
vt 0.788792 0.307864
vt 0.711963 0.307864
vt 0.865634 0.154217
vt 0.865634 0.231071
vt 0.325981 0.069790
vt 0.384973 0.069562
vt 0.386615 0.424055
vt 0.327351 0.471637
vt 0.468402 0.069239
vt 0.470308 0.369793
vt 0.209366 0.473702
vt 0.150373 0.411645
vt 0.149002 0.070476
vt 0.207995 0.070247
vt 0.091380 0.373132
vt 0.090009 0.070704
vt 0.527395 0.069010
vt 0.528765 0.370264
vn 0.000000 1.000000 0.000000
vn 0.000000 0.967818 0.251653
vn 0.000000 0.907009 0.421112
vn 0.000000 1.000000 0.000000
vn 0.000000 0.707106 0.707107
vn 0.000000 0.707106 0.707107
vn 1.000000 0.000000 0.000000
vn 1.000000 0.000000 0.000000
vn 1.000000 0.000000 0.000000
vn 1.000000 0.000000 0.000000
vn 1.000000 0.000000 0.000000
vn 1.000000 0.000000 0.000000
vn 0.000000 -1.000000 0.000000
vn 0.000000 -1.000000 0.000000
vn 0.000000 -1.000000 0.000000
vn 0.000000 -1.000000 0.000000
vn 0.000000 -1.000000 0.000000
vn 0.000000 -1.000000 0.000000
vn 0.000000 0.000000 1.000000
vn 0.000000 0.000000 1.000000
vn 0.000000 0.000000 1.000000
vn 0.000000 0.000000 1.000000
vn 0.000000 0.000000 -1.000000
vn 0.000000 0.000000 -1.000000
vn 0.000000 0.000000 -1.000000
vn 0.000000 0.000000 -1.000000
vn 0.000000 0.000000 1.000000
vn 0.000000 0.000000 1.000000
vn 0.000000 0.000000 1.000000
vn 0.000000 0.000000 1.000000
vn 0.000000 0.000000 1.000000
vn 0.000000 0.000000 1.000000
vn 0.000000 1.000000 0.000000
vn 0.421112 0.907009 -0.000000
vn 0.251653 0.967818 -0.000000
vn 0.000000 1.000000 0.000000
vn 0.707107 0.707107 -0.000000
vn 0.707107 0.707107 -0.000000
vn 0.000000 -1.000000 0.000000
vn 0.000000 -1.000000 0.000000
vn 0.000000 -1.000000 0.000000
vn 0.000000 -1.000000 0.000000
vn 0.000000 -1.000000 0.000000
vn 0.000000 -1.000000 0.000000
vn 1.000000 0.000000 0.000000
vn 1.000000 0.000000 0.000000
vn 1.000000 0.000000 0.000000
vn 1.000000 0.000000 0.000000
vn -1.000000 0.000000 0.000000
vn -1.000000 0.000000 0.000000
vn -1.000000 0.000000 0.000000
vn -1.000000 0.000000 0.000000
s 1
g OutsideCorner_LP
usemtl initialShadingGroup
f 4/4/1 5/3/2 8/18/3 7/15/4
f 5/3/2 6/6/5 9/9/6 8/18/3
s 2
f 7/8/7 8/7/8 11/17/9 10/16/10
f 8/7/8 9/13/11 12/14/12 11/17/9
s 3
f 10/11/13 11/10/14 2/2/15 1/1/16
f 11/10/14 12/19/17 3/5/18 2/2/15
s off
f 3/20/19 12/12/20 9/9/21 6/6/22
f 10/11/23 1/1/24 4/4/25 7/15/26
s 4
f 13/21/27 14/22/28 17/23/29 16/24/30
f 14/22/28 15/25/31 18/26/32 17/23/29
s 5
f 16/27/33 17/28/34 5/29/35 4/30/36
f 17/28/34 18/31/37 6/32/38 5/29/35
s 6
f 1/33/39 2/34/40 14/35/41 13/36/42
f 2/34/40 3/37/43 15/38/44 14/35/41
s off
f 15/39/45 3/40/46 6/32/47 18/31/48
f 1/33/49 13/36/50 16/27/51 4/30/52
