# This file uses centimeters as units for non-parametric coordinates.

mtllib Wall_HP.mtl
g default
v -0.995855 0.015468 -0.030935
v -0.984532 0.004145 -0.030935
v -0.969065 0.000000 -0.030935
v -0.969065 0.004145 -0.015468
v -0.969065 0.015468 -0.004145
v -0.969065 0.030935 0.000000
v -0.984532 0.030935 -0.004145
v -0.995855 0.030935 -0.015468
v -1.000000 0.030935 -0.030935
v -0.500000 0.030935 0.000000
v -0.500000 0.015468 -0.004145
v -0.500000 0.004145 -0.015468
v -0.500000 0.000000 -0.030935
v -0.015468 0.004145 -0.030924
v -0.004145 0.015468 -0.030924
v 0.000000 0.030935 -0.030935
v -0.004145 0.030935 -0.015468
v -0.015468 0.030935 -0.004145
v -0.030935 0.030935 -0.000000
v -0.030952 0.015468 -0.004145
v -0.030952 0.004145 -0.015468
v -0.030935 0.000000 -0.030935
v -0.984532 0.995856 -0.030924
v -0.995855 0.984532 -0.030924
v -1.000000 0.969065 -0.030935
v -0.995855 0.969048 -0.015468
v -0.984532 0.969048 -0.004144
v -0.969065 0.969065 0.000000
v -0.969065 0.984532 -0.004144
v -0.969065 0.995855 -0.015468
v -0.969065 1.000000 -0.030935
v -0.494959 0.992127 -0.031814
v -0.509132 0.997998 -0.031814
v -0.524342 1.000000 -0.031804
v -0.524670 0.994698 -0.015564
v -0.520217 0.983826 -0.003869
v -0.512242 0.970446 0.000000
v -0.497140 0.974287 -0.003875
v -0.486305 0.978826 -0.015568
v -0.482788 0.982788 -0.031804
v -0.002002 0.490868 -0.031814
v -0.007873 0.505041 -0.031814
v -0.017212 0.517212 -0.031804
v -0.021174 0.513695 -0.015569
v -0.025713 0.502859 -0.003875
v -0.029554 0.487758 -0.000000
v -0.016174 0.479783 -0.003870
v -0.005302 0.475330 -0.015564
v 0.000000 0.475658 -0.031804
v -0.984560 0.969091 -2.994529
v -0.995864 0.969091 -2.983194
v -1.000000 0.969107 -2.967730
v -0.995855 0.984554 -2.967733
v -0.984532 0.995861 -2.967749
v -0.969065 1.000000 -2.967772
v -0.969078 0.995861 -2.983240
v -0.969094 0.984554 -2.994563
v -0.969107 0.969107 -2.998708
v -0.486494 0.978990 -2.984685
v -0.497251 0.974356 -2.996206
v -0.512247 0.970433 -2.999966
v -0.520097 0.983806 -2.996151
v -0.524428 0.994684 -2.984602
v -0.524014 1.000000 -2.968559
v -0.509010 0.998025 -2.968588
v -0.495029 0.992235 -2.968620
v -0.483026 0.983025 -2.968651
v -0.005322 0.475573 -2.986006
v -0.016211 0.479902 -2.997532
v -0.029583 0.487745 -3.001296
v -0.025654 0.502754 -2.997502
v -0.021017 0.513511 -2.985965
v -0.016979 0.516978 -2.969927
v -0.007767 0.504973 -2.969944
v -0.001975 0.490993 -2.969958
v 0.000000 0.475990 -2.969965
v -0.995864 0.030892 -2.983195
v -0.984560 0.030892 -2.994529
v -0.969107 0.030893 -2.998708
v -0.969094 0.015446 -2.994564
v -0.969078 0.004139 -2.983240
v -0.969065 0.000000 -2.967773
v -0.984532 0.004139 -2.967744
v -0.995855 0.015446 -2.967728
v -1.000000 0.030893 -2.967730
v -0.015495 0.030978 -2.997182
v -0.004153 0.030978 -2.985871
v 0.000000 0.030978 -2.970400
v -0.004145 0.015489 -2.970407
v -0.015468 0.004150 -2.970392
v -0.030935 0.000000 -2.970357
v -0.030966 0.004150 -2.985825
v -0.030982 0.015489 -2.997148
v -0.030978 0.030978 -3.001292
v -0.500000 0.000000 -2.969065
v -0.500000 0.004145 -2.984532
v -0.500000 0.015468 -2.995856
v -0.500000 0.030935 -3.000000
v -0.993529 0.017569 -0.017569
v -0.982431 0.006471 -0.017569
v -0.982431 0.017569 -0.006471
v -0.017560 0.006472 -0.017567
v -0.006462 0.017571 -0.017565
v -0.017570 0.017568 -0.006472
v -0.982429 0.993538 -0.017565
v -0.993528 0.982440 -0.017567
v -0.982432 0.982430 -0.006472
v -0.496149 0.988088 -0.017730
v -0.511113 0.994287 -0.017734
v -0.506405 0.984538 -0.006110
v -0.005713 0.488887 -0.017734
v -0.011912 0.503851 -0.017730
v -0.015461 0.493595 -0.006111
v -0.982454 0.982455 -2.992204
v -0.993535 0.982464 -2.981091
v -0.982438 0.993547 -2.981112
v -0.496217 0.988169 -2.982531
v -0.506402 0.984567 -2.993985
v -0.511015 0.994299 -2.982495
v -0.005705 0.488988 -2.983865
v -0.015446 0.493605 -2.995329
v -0.011837 0.503787 -2.983855
v -0.993536 0.017544 -2.981094
v -0.982453 0.017544 -2.992207
v -0.982440 0.006462 -2.981112
v -0.017592 0.017592 -2.994849
v -0.006468 0.017596 -2.983770
v -0.017569 0.006481 -2.983749
vt 0.204357 0.073159
vt 0.716716 0.158970
vt 0.093673 0.073687
vt 0.523758 0.072010
vt 0.716716 0.303111
vt 0.861092 0.229189
vt 0.471288 0.072297
vt 0.212617 0.357891
vt 0.330627 0.356438
vt 0.383461 0.358425
vt 0.389155 0.358451
vt 0.467367 0.355324
vt 0.473024 0.355231
vt 0.525071 0.355668
vt 0.688325 0.162548
vt 0.788792 0.158970
vt 0.860880 0.158972
vt 0.786911 0.303324
vt 0.329641 0.072764
vt 0.382112 0.072643
vt 0.387859 0.072646
vt 0.465544 0.072345
vt 0.205331 0.357342
vt 0.150120 0.348628
vt 0.149014 0.073374
vt 0.323313 0.356376
vt 0.211655 0.073232
vt 0.322341 0.072803
vt 0.689829 0.292790
vt 0.626410 0.293707
vt 0.558633 0.227474
vt 0.558094 0.164064
vt 0.623203 0.163306
vt 0.094954 0.357985
vt 0.209217 0.073189
vt 0.206790 0.073165
vt 0.800210 0.154217
vt 0.205228 0.070258
vt 0.750760 0.155352
vt 0.754991 0.155972
vt 0.210400 0.070238
vt 0.801261 0.154217
vt 0.788813 0.156593
vt 0.149002 0.070476
vt 0.788792 0.154217
vt 0.527401 0.070342
vt 0.090015 0.072041
vt 0.525580 0.071171
vt 0.864918 0.154217
vt 0.523868 0.069024
vt 0.862825 0.156279
vt 0.862133 0.156558
vt 0.091690 0.070697
vt 0.863445 0.154217
vt 0.327198 0.072757
vt 0.324775 0.072770
vt 0.824096 0.154217
vt 0.322850 0.069802
vt 0.767217 0.227343
vt 0.764379 0.226022
vt 0.328025 0.069782
vt 0.825147 0.154217
vt 0.385931 0.072629
vt 0.384014 0.072629
vt 0.835965 0.154217
vt 0.381294 0.069576
vt 0.803474 0.232049
vt 0.807009 0.232642
vt 0.386522 0.069556
vt 0.837026 0.154217
vt 0.469366 0.072297
vt 0.467458 0.072313
vt 0.853038 0.154217
vt 0.465371 0.069250
vt 0.853613 0.193387
vt 0.853447 0.192671
vt 0.470599 0.069230
vt 0.854100 0.154217
vt 0.325291 0.359331
vt 0.694144 0.295056
vt 0.324300 0.357851
vt 0.325755 0.356394
vt 0.328184 0.356414
vt 0.329648 0.357901
vt 0.692168 0.297052
vt 0.328678 0.359374
vt 0.388853 0.360020
vt 0.623353 0.296459
vt 0.388003 0.361521
vt 0.384596 0.361522
vt 0.626779 0.297808
vt 0.383748 0.360009
vt 0.385355 0.358433
vt 0.387252 0.358442
vt 0.472766 0.356789
vt 0.554522 0.227198
vt 0.471941 0.358247
vt 0.468559 0.358301
vt 0.555948 0.230594
vt 0.467690 0.356872
vt 0.469253 0.355293
vt 0.471134 0.355262
vt 0.211638 0.359390
vt 0.692586 0.160181
vt 0.210658 0.360901
vt 0.207309 0.360656
vt 0.690590 0.158233
vt 0.206317 0.358989
vt 0.207759 0.357523
vt 0.210184 0.357706
vt 0.527026 0.358665
vt 0.553767 0.161816
vt 0.526032 0.357162
vt 0.526888 0.355744
vt 0.091314 0.358633
vt 0.528700 0.355820
vt 0.093944 0.359606
vt 0.555721 0.159791
vt 0.093002 0.361218
vt 0.150125 0.350088
vt 0.623154 0.159012
vt 0.150131 0.351526
vt 0.800926 0.154217
vt 0.208755 0.070244
vt 0.800544 0.154217
vt 0.206873 0.070251
vt 0.539368 0.121775
vt 0.865634 0.154217
vt 0.090009 0.070704
vt 0.527395 0.069010
vt 0.865252 0.154217
vt 0.525513 0.069017
vt 0.863580 0.155639
vt 0.824813 0.154217
vt 0.326380 0.069789
vt 0.824431 0.154217
vt 0.324498 0.069796
vt 0.594387 0.161166
vt 0.836693 0.154217
vt 0.384882 0.069562
vt 0.836299 0.154217
vt 0.382940 0.069569
vt 0.636624 0.171176
vt 0.853766 0.154217
vt 0.468953 0.069236
vt 0.853372 0.154217
vt 0.467011 0.069244
vt 0.700379 0.145602
vt 0.326968 0.359308
vt 0.694167 0.297029
vt 0.325932 0.357624
vt 0.328012 0.357643
vt 0.387280 0.359863
vt 0.386326 0.361588
vt 0.624757 0.297831
vt 0.385335 0.359846
vt 0.471178 0.356625
vt 0.470235 0.358234
vt 0.554546 0.229223
vt 0.469247 0.356649
vt 0.210013 0.359056
vt 0.208982 0.360923
vt 0.692564 0.158210
vt 0.207941 0.358900
vt 0.528713 0.358678
vt 0.091327 0.361502
vt 0.553744 0.159813
vt 0.527290 0.356996
vt 0.091320 0.359970
vt 0.528706 0.357153
vn -0.008535 -0.999963 0.001392
vn -0.499728 -0.866182 0.001054
vn -0.499523 -0.866300 -0.001047
vn -0.008514 -0.999963 -0.001387
vn -0.706866 -0.707347 0.001047
vn -0.706865 -0.707348 -0.001035
vn -0.965907 -0.258888 0.000993
vn -0.999990 -0.004340 0.001398
vn -0.999990 -0.004340 -0.001395
vn -0.965907 -0.258889 -0.000984
vn -0.008620 -0.004363 0.999953
vn -0.006440 -0.499896 0.866062
vn 0.000000 -0.499999 0.866026
vn -0.000000 -0.004990 0.999988
vn -0.006440 -0.866062 0.499896
vn 0.000000 -0.866026 0.499999
vn 0.000000 -0.999999 0.001403
vn -0.866049 -0.003263 0.499948
vn -0.866092 0.003260 0.499874
vn -0.999990 0.004342 0.001397
vn -0.707104 -0.003234 0.707102
vn -0.707103 0.003234 0.707103
vn -0.258511 -0.003070 0.966003
vn -0.008620 0.004069 0.999955
vn -0.258514 0.003067 0.966003
vn 0.999958 -0.008998 0.001583
vn 0.866153 -0.499778 0.001046
vn 0.866205 -0.499688 -0.001057
vn 0.999958 -0.008993 -0.001587
vn 0.707349 -0.706864 0.001036
vn 0.707350 -0.706862 -0.001045
vn 0.258885 -0.965908 0.000990
vn 0.008554 -0.999962 0.001391
vn 0.008572 -0.999962 -0.001396
vn 0.258885 -0.965908 -0.000996
vn 0.005379 -0.005771 0.999969
vn 0.266634 -0.007188 0.963771
vn 0.466168 0.003213 0.884690
vn 0.005006 0.002506 0.999984
vn 0.719589 -0.005365 0.694380
vn 0.865618 -0.005160 0.500678
vn 0.856913 0.003965 0.515446
vn 0.999990 0.004318 0.001571
vn -0.965909 0.258881 0.000995
vn -0.965908 0.258883 -0.000986
vn -0.999990 0.004341 -0.001394
vn -0.706866 0.707347 0.001045
vn -0.499778 0.866153 0.001053
vn -0.499548 0.866286 -0.001045
vn -0.706864 0.707348 -0.001033
vn -0.008990 0.999958 0.001584
vn -0.008963 0.999959 -0.001580
vn -0.005160 0.865618 0.500678
vn 0.003964 0.856912 0.515447
vn 0.004318 0.999990 0.001572
vn -0.005366 0.719588 0.694381
vn 0.003212 0.466168 0.884691
vn -0.007189 0.266635 0.963771
vn 0.002077 0.004150 0.999989
vn 0.258738 0.965946 0.001468
vn 0.258930 0.965895 -0.001418
vn 0.004330 0.999989 -0.001575
vn 0.500019 0.866013 0.001465
vn 0.500136 0.865946 -0.001415
vn 0.705021 0.709185 0.001761
vn 0.705022 0.709183 -0.001758
vn 0.605042 0.607408 0.514762
vn 0.607409 0.605042 0.514762
vn 0.709186 0.705020 0.001761
vn 0.341062 0.344041 0.874821
vn 0.344042 0.341061 0.874821
vn 0.865993 0.500054 0.001464
vn 0.866051 0.499953 -0.001416
vn 0.709189 0.705016 -0.001766
vn 0.965936 0.258779 0.001467
vn 0.965941 0.258757 -0.001419
vn 0.999990 0.004320 -0.001572
vn -0.866550 0.003263 -0.499079
vn -0.866508 -0.003264 -0.499153
vn -0.501461 0.003264 -0.865174
vn -0.501535 -0.003264 -0.865131
vn -0.007740 0.002336 -0.999967
vn -0.007743 -0.002529 -0.999967
vn -0.009883 0.264549 -0.964322
vn 0.000584 0.464015 -0.885827
vn -0.001674 0.002169 -0.999996
vn -0.007472 0.717431 -0.696590
vn -0.006750 0.864414 -0.502735
vn 0.002276 0.855591 -0.517648
vn 0.335831 0.341131 -0.877979
vn 0.338558 0.338060 -0.878120
vn -0.000584 0.001081 -0.999999
vn 0.602245 0.605980 -0.519702
vn 0.604413 0.603534 -0.520031
vn 0.462413 0.002988 -0.886660
vn 0.262271 -0.007277 -0.964967
vn -0.000393 -0.002553 -0.999997
vn 0.855167 0.003675 -0.518339
vn 0.863751 -0.005405 -0.503891
vn 0.716333 -0.005609 -0.697736
vn -0.007783 -0.866322 -0.499426
vn -0.001364 -0.866026 -0.499996
vn -0.000004 -0.999999 -0.001403
vn -0.008280 -0.707340 -0.706825
vn -0.002366 -0.499999 -0.866023
vn -0.008685 -0.258375 -0.966006
vn -0.002755 -0.002515 -0.999993
vn 0.006434 -0.866103 0.499824
vn 0.006055 -0.258214 0.966069
vn 0.006379 -0.707091 0.707094
vn 0.004094 -0.499499 -0.866305
vn 0.004466 -0.706850 -0.707349
vn 0.005370 -0.966026 -0.258388
vn -0.946104 -0.229002 0.229008
vn -0.707841 -0.499482 0.499478
vn -0.499481 -0.707839 0.499482
vn -0.229007 -0.946104 0.229007
vn -0.499480 -0.499480 0.707841
vn -0.229008 -0.229005 0.946104
vn 0.228750 -0.946126 0.229168
vn 0.499222 -0.707884 0.499677
vn 0.707794 -0.499294 0.499733
vn 0.946248 -0.228628 0.228791
vn 0.499010 -0.499569 0.708110
vn 0.228935 -0.229188 0.946077
vn -0.228625 0.946248 0.228791
vn -0.499295 0.707792 0.499735
vn -0.707884 0.499221 0.499678
vn -0.946125 0.228755 0.229169
vn -0.499568 0.499011 0.708110
vn -0.229190 0.228933 0.946077
vn 0.484044 0.764106 0.426432
vn 0.197946 0.882525 0.426577
vn 0.244635 0.591539 0.768268
vn 0.882524 0.197946 0.426578
vn 0.764106 0.484043 0.426432
vn 0.591540 0.244635 0.768267
vn -0.231370 0.229336 -0.945449
vn -0.500526 0.499558 -0.707047
vn -0.708263 0.499804 -0.498558
vn -0.946142 0.229173 -0.228682
vn -0.499896 0.708014 -0.498819
vn -0.228857 0.946307 -0.228316
vn 0.482454 0.761853 -0.432224
vn 0.240676 0.586156 -0.773626
vn 0.195829 0.880259 -0.432197
vn 0.879815 0.196855 -0.432637
vn 0.584743 0.242539 -0.774113
vn 0.761054 0.483524 -0.432437
vn -0.946126 -0.229372 -0.228546
vn -0.708218 -0.499983 -0.498441
vn -0.500396 -0.499981 -0.706840
vn -0.231161 -0.229378 -0.945489
vn -0.500015 -0.708055 -0.498641
vn -0.229180 -0.946172 -0.228549
vn 0.226804 -0.228857 -0.946670
vn 0.498129 -0.499121 -0.709046
vn 0.707424 -0.498858 -0.500692
vn 0.946216 -0.228321 -0.229227
vn 0.498760 -0.707677 -0.500431
vn 0.228640 -0.946046 -0.229612
s 1
g Wall_HP
usemtl initialShadingGroup
f 3/1/1 2/36/2 83/109/3 82/23/4
f 2/36/2 1/35/5 84/110/6 83/109/3
f 1/35/7 9/27/8 85/8/9 84/110/10
f 6/2/11 5/39/12 11/43/13 10/16/14
f 5/39/12 4/37/15 12/45/16 11/43/13
f 4/38/15 3/1/1 13/25/17 12/44/16
f 9/27/8 8/41/18 26/58/19 25/28/20
f 8/42/18 7/40/21 27/59/22 26/57/19
f 7/40/23 6/2/11 28/5/24 27/59/25
f 16/4/26 15/48/27 89/114/28 88/14/29
f 15/48/27 14/46/30 90/116/31 89/114/28
f 14/47/32 22/3/33 91/34/34 90/115/35
f 19/17/36 18/51/37 47/76/38 46/6/39
f 18/51/40 17/49/41 48/78/42 47/76/38
f 17/50/41 16/4/26 49/7/43 48/77/42
f 25/28/20 24/56/44 53/82/45 52/26/46
f 24/56/47 23/55/48 54/83/49 53/82/50
f 23/55/48 31/19/51 55/9/52 54/83/49
f 31/19/51 30/61/53 35/66/54 34/20/55
f 30/62/53 29/60/56 36/67/57 35/65/54
f 29/60/58 28/5/24 37/18/59 36/67/57
f 34/20/55 33/64/60 65/93/61 64/10/62
f 33/64/60 32/63/63 66/94/64 65/93/61
f 32/63/63 40/21/65 67/11/66 66/94/64
f 40/21/65 39/69/67 44/74/68 43/22/69
f 39/70/67 38/68/70 45/75/71 44/73/68
f 38/68/70 37/18/59 46/6/39 45/75/71
f 43/22/69 42/72/72 74/101/73 73/12/74
f 42/72/72 41/71/75 75/102/76 74/101/73
f 41/71/75 49/7/43 76/13/77 75/102/76
f 52/26/46 51/81/78 77/103/79 85/8/9
f 51/81/78 50/79/80 78/105/81 77/103/79
f 50/80/80 58/29/82 79/15/83 78/104/81
f 58/29/82 57/85/84 62/91/85 61/30/86
f 57/86/87 56/84/88 63/92/89 62/90/85
f 56/84/88 55/9/52 64/10/62 63/92/89
f 61/30/86 60/88/90 71/99/91 70/31/92
f 60/89/90 59/87/93 72/100/94 71/98/91
f 59/87/93 67/11/66 73/12/74 72/100/94
f 70/31/92 69/96/95 86/112/96 94/32/97
f 69/97/95 68/95/98 87/113/99 86/111/100
f 68/95/98 76/13/77 88/14/29 87/113/99
f 82/23/4 81/108/101 96/120/102 95/24/103
f 81/108/101 80/106/104 97/122/105 96/120/102
f 80/107/106 79/15/83 98/33/107 97/121/105
f 6/2/11 10/16/14 37/18/59 28/5/24
f 10/16/14 19/17/36 46/6/39 37/18/59
f 31/19/51 34/20/55 64/10/62 55/9/52
f 40/21/65 43/22/69 73/12/74 67/11/66
f 16/4/26 88/14/29 76/13/77 49/7/43
f 82/23/4 95/24/103 13/25/17 3/1/1
f 95/24/103 91/34/34 22/3/33 13/25/17
f 52/26/46 85/8/9 9/27/8 25/28/20
f 58/29/82 61/30/86 70/31/92 94/32/97 98/33/107 79/15/83
f 12/44/16 13/25/17 22/3/33 21/53/108
f 10/16/14 11/43/13 20/52/109 19/17/36
f 11/43/13 12/45/16 21/54/108 20/52/110
f 94/32/97 93/118/111 97/121/105 98/33/107
f 93/119/111 92/117/112 96/120/102 97/122/105
f 92/117/113 91/34/34 95/24/103 96/120/102
f 8/41/18 9/27/8 1/35/7 99/124/114
f 99/124/115 1/35/5 2/36/2 100/126/116
f 2/36/2 3/1/1 4/38/15 100/126/117
f 100/125/116 4/37/15 5/39/12 101/127/118
f 5/39/12 6/2/11 7/40/23 101/127/119
f 101/127/118 7/40/21 8/42/18 99/123/115
f 99/123/115 100/125/116 101/127/118
f 21/53/108 22/3/33 14/47/32 102/129/120
f 102/130/121 14/46/30 15/48/27 103/132/122
f 15/48/27 16/4/26 17/50/41 103/132/123
f 103/131/122 17/49/41 18/51/40 104/133/124
f 18/51/37 19/17/36 20/52/109 104/133/125
f 104/133/124 20/52/110 21/54/108 102/128/121
f 102/128/121 103/131/122 104/133/124
f 30/61/53 31/19/51 23/55/48 105/135/126
f 105/135/127 23/55/48 24/56/47 106/137/128
f 24/56/44 25/28/20 26/58/19 106/137/129
f 106/136/128 26/57/19 27/59/22 107/138/130
f 27/59/25 28/5/24 29/60/58 107/138/131
f 107/138/130 29/60/56 30/62/53 105/134/127
f 105/134/127 106/136/128 107/138/130
f 39/69/67 40/21/65 32/63/63 108/140/132
f 108/140/132 32/63/63 33/64/60 109/142/133
f 33/64/60 34/20/55 35/66/54 109/142/133
f 109/141/133 35/65/54 36/67/57 110/143/134
f 36/67/57 37/18/59 38/68/70 110/143/134
f 110/143/134 38/68/70 39/70/67 108/139/132
f 108/139/132 109/141/133 110/143/134
f 48/77/42 49/7/43 41/71/75 111/145/135
f 111/145/135 41/71/75 42/72/72 112/147/136
f 42/72/72 43/22/69 44/74/68 112/147/136
f 112/146/136 44/73/68 45/75/71 113/148/137
f 45/75/71 46/6/39 47/76/38 113/148/137
f 113/148/137 47/76/38 48/78/42 111/144/135
f 111/144/135 112/146/136 113/148/137
f 57/85/84 58/29/82 50/80/80 114/150/138
f 114/149/139 50/79/80 51/81/78 115/151/140
f 51/81/78 52/26/46 53/82/45 115/151/141
f 115/151/140 53/82/50 54/83/49 116/152/142
f 54/83/49 55/9/52 56/84/88 116/152/143
f 116/152/142 56/84/88 57/86/87 114/149/139
f 114/149/139 115/151/140 116/152/142
f 66/94/64 67/11/66 59/87/93 117/153/144
f 117/153/144 59/87/93 60/89/90 118/154/145
f 60/88/90 61/30/86 62/91/85 118/155/145
f 118/154/145 62/90/85 63/92/89 119/156/146
f 63/92/89 64/10/62 65/93/61 119/156/146
f 119/156/146 65/93/61 66/94/64 117/153/144
f 117/153/144 118/154/145 119/156/146
f 75/102/76 76/13/77 68/95/98 120/157/147
f 120/157/147 68/95/98 69/97/95 121/158/148
f 69/96/95 70/31/92 71/99/91 121/159/148
f 121/158/148 71/98/91 72/100/94 122/160/149
f 72/100/94 73/12/74 74/101/73 122/160/149
f 122/160/149 74/101/73 75/102/76 120/157/147
f 120/157/147 121/158/148 122/160/149
f 84/110/10 85/8/9 77/103/79 123/161/150
f 123/161/151 77/103/79 78/105/81 124/162/152
f 78/104/81 79/15/83 80/107/106 124/163/153
f 124/162/152 80/106/104 81/108/101 125/164/154
f 81/108/101 82/23/4 83/109/3 125/164/155
f 125/164/154 83/109/3 84/110/6 123/161/151
f 123/161/151 124/162/152 125/164/154
f 93/118/111 94/32/97 86/112/96 126/167/156
f 126/165/157 86/111/100 87/113/99 127/168/158
f 87/113/99 88/14/29 89/114/28 127/168/159
f 127/168/158 89/114/28 90/116/31 128/170/160
f 90/115/35 91/34/34 92/117/113 128/169/161
f 128/169/160 92/117/112 93/119/111 126/166/157
f 126/165/157 127/168/158 128/170/160
